<svg width="127" height="127" viewBox="0 0 127 127" fill="none" xmlns="http://www.w3.org/2000/svg">
<path d="M34.3959 108.479C33.6445 108.479 33.0147 108.227 32.5067 107.722C31.9987 107.218 31.7465 106.588 31.75 105.833V30.734C31.75 29.5063 32.1557 28.4868 32.9671 27.6754C33.7785 26.864 34.798 26.4583 36.0257 26.4583H53.8851C54.9787 26.4583 55.9241 26.8729 56.7214 27.7019C57.5187 28.5309 57.9332 29.524 57.965 30.6811C57.9438 30.8645 57.9279 31.0427 57.9173 31.2156C57.9067 31.3884 57.9015 31.5666 57.9015 31.75C58.4871 40.7388 62.0342 48.2141 68.543 54.1761C75.0517 60.1345 82.7335 63.1137 91.5882 63.1137C92.382 63.1137 93.1757 63.0926 93.9695 63.0502C94.7632 63.0079 95.5464 62.9073 96.319 62.7486C97.4302 62.5722 98.4127 62.8333 99.2664 63.5318C100.117 64.2303 100.542 65.1263 100.542 66.2199V75.0993C100.542 76.3305 100.136 77.3501 99.3246 78.1579C98.5132 78.9658 97.4937 79.3715 96.266 79.375H76.6234C75.5933 79.375 74.676 79.0628 73.8717 78.4384C73.0744 77.814 72.577 76.9849 72.3795 75.9513L70.9454 68.7917H37.0417V105.833C37.0417 106.588 36.7895 107.218 36.285 107.722C35.7805 108.227 35.1508 108.479 34.3959 108.479ZM91.5882 8.15976C97.4796 8.15976 102.48 10.2147 106.59 14.3246C110.7 18.4344 112.755 23.435 112.755 29.3264C112.755 35.2178 110.7 40.2202 106.59 44.3336C102.48 48.447 97.4796 50.5002 91.5882 50.4931C85.6968 50.486 80.6944 48.4329 76.581 44.3336C72.4677 40.2343 70.4145 35.2319 70.4215 29.3264C70.4215 23.435 72.4747 18.4344 76.581 14.3246C80.6874 10.2147 85.6898 8.15976 91.5882 8.15976ZM87.8523 33.3481L82.6188 28.1146C82.1637 27.6596 81.6275 27.4214 81.0102 27.4003C80.3928 27.3791 79.8231 27.6278 79.301 28.1464C78.7788 28.665 78.5178 29.2188 78.5178 29.808C78.5178 30.3971 78.7788 30.9492 79.301 31.4643L84.8572 37.0205C85.7145 37.8742 86.7128 38.3011 87.8523 38.3011C88.9918 38.3011 89.9884 37.8742 90.8421 37.0205L103.875 24.0242C104.331 23.5691 104.574 23.0293 104.606 22.4049C104.641 21.777 104.398 21.202 103.875 20.6798C103.353 20.1577 102.799 19.9002 102.214 19.9073C101.628 19.9143 101.076 20.1718 100.558 20.6798L87.8523 33.3481Z" fill="#14AE5C"/>
</svg>
