<svg width="99" height="85" viewBox="0 0 99 85" fill="none" xmlns="http://www.w3.org/2000/svg">
<path d="M0.446289 84.8333L49.5 0.166656L98.5538 84.8333H0.446289ZM49.5 72.218C50.4243 72.218 51.1987 71.9058 51.8231 71.2814C52.4475 70.6569 52.7579 69.8826 52.7544 68.9583C52.7509 68.034 52.4387 67.2615 51.8178 66.6406C51.1969 66.0197 50.4243 65.7057 49.5 65.6987C48.5758 65.6916 47.8032 66.0038 47.1823 66.6353C46.5614 67.2668 46.2492 68.0411 46.2457 68.9583C46.2421 69.8755 46.5543 70.6499 47.1823 71.2814C47.8102 71.9128 48.5828 72.225 49.5 72.218ZM46.8542 60.4123H52.1459V33.9539H46.8542V60.4123Z" fill="#FFE311"/>
</svg>
